# xmcd
#
# Track frame offsets:
# 150
# 15887
# 32710
# 52650
# 72590
# 109857
#
# Disc length: 1797 seconds
#
#
# Revision: 0
# Processed by: cddbd v1.5.1PL0 Copyright (c) Steve Scherf et al.
# Submitted via: FreeRIP 2.92 
#
DISCID=41070306
DTITLE=Drink the Bleach - s-t
DYEAR=2005
DGENRE=Hardcore
TTITLE0=Freeway
TTITLE1=There's Nothing
TTITLE2=Frozen at the Gates
TTITLE3=Enemy
TTITLE4=Hymn to Nihil
TTITLE5=Burn
EXTD=
EXTT0=
EXTT1=
EXTT2=
EXTT3=
EXTT4=
EXTT5=
PLAYORDER=
